# Blender v2.77 (sub 0) OBJ File: 'chair.blend'
# www.blender.org
mtllib chair.mtl
o Cube
v 1.000000 -0.014129 -1.000000
v 1.000000 -0.014129 1.000000
v -1.000000 -0.014129 1.000000
v -1.000000 -0.014129 -1.000000
v 1.000000 0.530847 -0.999999
v 0.999999 0.502188 1.000001
v -1.000000 0.502188 1.000000
v -1.000000 0.530847 -1.000000
v 1.000000 -0.014129 1.317804
v -1.000000 -0.014129 1.317804
v 0.999999 0.502188 1.317805
v -1.000000 0.502188 1.317804
v 1.000000 -0.014128 -1.307466
v -1.000000 -0.014128 -1.307467
v 1.000001 0.530848 -1.307466
v -1.000000 0.530848 -1.307466
v -1.080288 0.271783 -1.000000
v -1.080288 0.259605 1.000000
v 1.000000 0.856612 -0.999999
v 0.999999 0.856612 1.000001
v -1.000000 0.856612 1.000000
v -1.000000 0.856612 -1.000000
v 0.999999 0.994726 0.996392
v -1.000000 0.994726 0.996391
v 0.999999 0.994726 1.314196
v -1.000000 0.994726 1.314195
v 1.000000 0.998719 -0.995577
v -1.000000 0.998719 -0.995578
v 1.000001 0.998719 -1.303043
v -1.000000 0.998719 -1.303044
v -1.085819 0.666206 1.000000
v -1.085819 0.682311 -1.000000
v 0.544490 0.856612 -1.000000
v 0.546237 0.856612 1.000000
v 1.000000 1.397770 -0.999999
v 0.999999 1.397770 1.000001
v 0.592540 1.397770 -1.000000
v 0.594287 1.397770 1.000000
v 1.000000 1.802473 -0.999999
v 0.999999 1.802473 1.000001
v 0.544490 1.802473 -1.000000
v 0.546237 1.802473 1.000000
v 0.999999 1.069144 1.156525
v -1.000000 1.069144 1.150083
v 1.000000 1.065243 -1.133892
v -1.000000 1.065243 -1.142205
v 0.471394 1.133529 -1.000000
v 0.473026 1.132231 1.000000
v 0.466265 1.589736 -1.000000
v 0.465494 1.610935 1.000000
v 0.794942 1.879581 1.000000
v 0.793437 1.879581 -1.000000
vn 0.0000 -1.0000 0.0000
vn -0.0000 0.0000 1.0000
vn 1.0000 0.0000 0.0000
vn 0.0000 -0.0073 -1.0000
vn -0.9695 -0.0000 0.2449
vn 0.0000 0.0000 -1.0000
vn -1.0000 0.0000 -0.0000
vn -0.9676 -0.0000 -0.2527
vn -0.9552 0.2960 0.0042
vn 0.0014 0.9069 -0.4214
vn -0.0000 0.0073 1.0000
vn -0.0017 0.9107 0.4132
vn 0.0000 0.0095 -1.0000
vn -0.0000 -0.0095 1.0000
vn -0.8972 0.4417 -0.0000
vn 0.3520 0.9360 0.0000
vn -0.0000 0.9043 0.4268
vn 0.0000 0.9241 -0.3822
vn -0.9090 0.4168 0.0010
vn -0.9386 0.3451 -0.0040
vn -0.2961 0.9551 0.0002
vn -0.9494 0.3142 -0.0000
vn -0.9596 -0.2814 -0.0000
vn -0.9628 -0.2704 -0.0000
vn -0.9552 0.2960 0.0000
vn -0.9494 0.3142 0.0019
vn 0.0000 0.9000 -0.4358
vn -0.0000 0.9012 0.4334
vn -0.9117 0.4109 0.0033
vn 0.3497 0.9369 -0.0003
vn -0.0013 0.9107 0.4130
vn 0.0015 0.9306 -0.3660
vn -0.9096 0.4154 0.0008
vn -0.9215 0.3884 0.0008
vn -0.2959 0.9552 0.0003
vn -0.9669 -0.2552 0.0006
vn -0.8700 -0.4930 -0.0040
vn 0.0000 1.0000 0.0000
vn -0.8355 -0.5496 0.0007
vn -0.9628 -0.2704 -0.0016
vn -0.9665 -0.2567 0.0008
vn -0.8860 -0.4636 -0.0066
vn -0.8559 -0.5171 0.0052
usemtl Material
s off
f 2//1 4//1 1//1
f 6//2 34//2 7//2
f 1//3 6//3 2//3
f 2//1 10//1 3//1
f 1//1 14//1 13//1
f 11//2 10//2 9//2
f 6//4 24//4 23//4
f 18//5 10//5 12//5
f 6//3 9//3 2//3
f 13//6 16//6 15//6
f 1//3 15//3 5//3
f 28//7 46//7 30//7
f 17//8 16//8 14//8
f 17//9 7//9 8//9
f 5//3 20//3 6//3
f 8//6 22//6 33//6
f 23//10 44//10 43//10
f 23//3 43//3 25//3
f 11//11 26//11 12//11
f 26//7 44//7 24//7
f 28//12 45//12 46//12
f 15//13 30//13 29//13
f 29//3 45//3 27//3
f 5//14 28//14 8//14
f 32//15 21//15 22//15
f 36//2 51//2 38//2
f 47//6 37//6 35//6
f 36//2 38//2 48//2
f 19//3 36//3 20//3
f 39//16 51//16 40//16
f 35//3 40//3 36//3
f 37//6 52//6 35//6
f 43//17 26//17 25//17
f 46//18 29//18 30//18
f 48//19 37//19 47//19
f 50//20 41//20 49//20
f 52//21 42//21 51//21
f 2//1 3//1 4//1
f 31//2 7//2 21//2
f 6//2 20//2 34//2
f 34//2 21//2 7//2
f 1//3 5//3 6//3
f 2//1 9//1 10//1
f 1//1 4//1 14//1
f 11//2 12//2 10//2
f 6//4 7//4 24//4
f 12//22 7//22 18//22
f 18//23 3//23 10//23
f 6//3 11//3 9//3
f 13//6 14//6 16//6
f 1//3 13//3 15//3
f 30//7 16//7 8//7
f 8//7 28//7 30//7
f 14//24 4//24 17//24
f 17//25 8//25 16//25
f 17//26 18//26 7//26
f 5//3 19//3 20//3
f 19//6 5//6 33//6
f 8//6 32//6 22//6
f 33//6 5//6 8//6
f 23//27 24//27 44//27
f 25//3 11//3 6//3
f 6//3 23//3 25//3
f 11//11 25//11 26//11
f 24//7 7//7 26//7
f 12//7 26//7 7//7
f 28//28 27//28 45//28
f 15//13 16//13 30//13
f 27//3 5//3 29//3
f 15//3 29//3 5//3
f 5//14 27//14 28//14
f 32//29 31//29 21//29
f 50//2 38//2 42//2
f 36//2 40//2 51//2
f 51//2 42//2 38//2
f 35//6 19//6 47//6
f 33//6 47//6 19//6
f 48//2 34//2 20//2
f 20//2 36//2 48//2
f 19//3 35//3 36//3
f 39//30 52//30 51//30
f 35//3 39//3 40//3
f 39//6 35//6 52//6
f 37//6 49//6 41//6
f 41//6 52//6 37//6
f 43//31 44//31 26//31
f 46//32 45//32 29//32
f 48//33 38//33 37//33
f 50//34 42//34 41//34
f 52//35 41//35 42//35
usemtl darker
f 18//23 4//23 3//23
f 33//36 48//36 47//36
f 8//37 31//37 32//37
f 33//38 21//38 34//38
f 38//39 49//39 37//39
f 18//40 17//40 4//40
f 33//41 34//41 48//41
f 8//42 7//42 31//42
f 33//38 22//38 21//38
f 38//43 50//43 49//43
