# Blender v2.77 (sub 0) OBJ File: 'house.blend'
# www.blender.org
mtllib house.mtl
o House_Cube
v 4.792449 -0.154063 -4.989888
v 5.399694 -0.336282 7.583035
v -5.623329 -0.563722 7.059826
v -6.215257 -0.412741 -5.639669
v 4.793146 0.016444 -4.981295
v 5.407116 -0.157724 7.591779
v -5.620921 -0.260362 7.063671
v -6.198975 -0.124035 -5.642485
v 5.241905 -0.144536 7.653436
v 4.606236 -0.008833 -4.986736
v 4.758553 4.578231 -5.374951
v 5.422770 4.462408 7.231805
v 5.261432 4.447577 7.272961
v 4.604417 4.584766 -5.358093
v -6.198975 -0.124035 -5.392545
v 4.608266 -0.008833 -4.713204
v -6.226129 4.478559 -5.943615
v 4.579082 4.593761 -5.287867
v -6.226129 4.478559 -5.693676
v 4.581111 4.593761 -5.014334
v 0.136445 -0.008833 -4.727329
v 0.819507 -0.008833 -4.725172
v 0.145568 0.536907 -4.733618
v 0.839141 0.526885 -4.707495
v -4.505538 -0.021174 -5.143201
v -4.110474 -0.153500 7.708614
v 5.064185 -0.040625 5.064234
v -4.718626 -0.026234 5.301009
v 1.966107 2.605995 -4.830156
v 1.892547 0.825078 -4.706152
v 3.190604 0.839503 -4.706814
v 3.188851 2.620960 -4.735637
v 4.636950 2.641121 -3.575472
v 4.629755 0.789308 -3.564161
v 4.632640 0.736168 -2.283150
v 4.651819 2.561878 -2.358751
vt 0.0000 0.0000
vt 0.0000 0.0000
vt 0.0000 0.0000
vt 0.0000 0.0000
vt 0.0000 0.0000
vt 0.0000 0.0000
vt 0.0000 0.0000
vt 0.0000 0.0000
vt 0.0000 0.0000
vt 0.0000 0.0000
vt 0.0000 0.0000
vt 0.0000 0.0000
vt 0.0000 0.0000
vt 0.0000 0.0000
vt 0.0000 0.0000
vt 0.0000 0.0000
vt 0.0000 0.0000
vt 0.0000 0.0000
vt 0.0000 0.0000
vt 0.0000 0.0000
vt 0.0000 0.0000
vt 0.0000 0.0000
vt 0.0000 0.0000
vt 0.0000 0.0000
vt 0.0000 0.0000
vt 0.0000 0.0000
vt 0.0000 0.0000
vt 0.0000 0.0000
vt 0.0000 0.0000
vt 0.0000 0.0000
vt 0.0000 0.0000
vt 0.0000 0.0000
vt 0.0000 0.0000
vt 0.0000 0.0000
vt 0.0000 0.0000
vt 0.0000 0.0000
vt 0.7014 0.0368
vt 0.0001 0.9667
vt 0.0001 0.0001
vt 0.6628 0.9999
vt 0.9546 0.0337
vt 0.0320 0.6695
vt 0.0001 0.0001
vt 0.9999 0.6695
vn 0.0243 -0.9996 -0.0130
vn -0.1119 -0.0863 -0.9900
vn 0.9988 -0.0072 -0.0489
vn 1.0000 0.0054 -0.0074
vn 0.0611 -0.0648 -0.9960
vn -0.0032 0.0116 0.9999
vn 0.0214 -0.9997 -0.0155
vn 0.0399 -0.0805 -0.9960
vn 0.9986 0.0030 -0.0526
vn -0.0381 -0.0316 0.9988
vn 0.9988 -0.0017 -0.0483
vn 0.0059 -0.3404 0.9403
vn -0.9984 0.0563 0.0000
vn 0.0607 -0.0132 -0.9981
vn -0.1037 0.9915 0.0786
vn -0.2132 0.9768 0.0206
vn -0.0007 0.9992 0.0401
vn -0.0000 1.0000 0.0033
vn 0.9980 -0.0391 -0.0493
vn -0.0088 -0.8358 0.5490
vn 0.3448 -0.0602 0.9367
vn -0.3922 -0.0085 0.9199
vn -0.9988 0.0163 0.0467
vn -0.9989 0.0073 0.0464
vn 0.0223 0.0502 -0.9985
vn 0.0565 0.0940 -0.9940
vn -0.0605 0.9982 -0.0008
vn 0.0027 0.9986 0.0521
vn -0.0027 1.0000 0.0004
vn 0.0015 1.0000 0.0025
vn 0.0431 0.9990 0.0069
vn 0.3539 0.0757 0.9322
vn -0.0107 0.9999 0.0000
vn -1.0000 -0.0059 0.0000
vn 0.0008 -0.0238 0.9997
vn -0.0780 0.1932 0.9781
vn -0.0876 0.9960 0.0154
vn 0.2400 0.0746 0.9679
vn -0.0107 0.9999 0.0001
vn -0.1432 0.8147 0.5619
vn -0.0893 0.0130 0.9959
vn 0.0081 -0.0333 0.9994
vn -0.1455 0.6992 0.7000
vn -0.0032 -0.0128 0.9999
vn -0.0356 0.1213 0.9920
vn 0.0142 0.0162 0.9998
vn -0.0636 0.1747 0.9826
vn -0.0928 0.0730 0.9930
vn 0.1058 0.0655 0.9922
vn -0.0900 0.0645 0.9938
vn -0.9997 0.0223 0.0032
vn -0.9980 0.0094 0.0620
vn -0.9998 0.0012 0.0195
vn -0.9861 0.1489 0.0737
vn -0.9999 0.0040 0.0143
vn -0.9920 -0.1172 0.0459
vn -0.9998 0.0162 0.0074
vn -0.9971 0.0544 0.0525
vn -0.9981 0.0130 0.0606
vn -0.9999 -0.0059 0.0118
vn -0.0003 0.0695 0.9976
vn -0.0773 0.0161 0.9969
vn -0.9999 0.0106 0.0027
vn -0.9999 0.0040 0.0125
usemtl Material
s off
f 1/1/1 3/2/1 4/3/1
f 5/4/2 14/5/2 11/6/2
f 5/4/3 12/7/3 6/8/3
f 10/9/4 20/10/4 16/11/4
f 10/9/5 17/12/5 18/13/5
f 22/14/6 23/15/6 21/16/6
f 1/1/7 2/17/7 3/2/7
f 5/4/8 10/9/8 14/5/8
f 5/4/9 11/6/9 12/7/9
f 10/9/4 18/13/4 20/10/4
f 10/9/5 8/18/5 17/12/5
f 22/14/10 24/19/10 23/15/10
usemtl Floor
f 5/4/11 2/17/11 1/1/11
f 9/20/12 26/21/12 2/17/12
f 15/22/13 8/18/13 4/3/13
f 4/3/14 8/18/14 10/9/14
f 26/21/15 28/23/15 7/24/15
f 28/23/16 15/22/16 7/24/16
f 27/25/17 26/21/17 9/20/17
f 27/25/18 22/14/18 21/16/18
f 5/4/19 6/8/19 2/17/19
f 3/2/20 2/17/20 26/21/20
f 6/8/21 9/20/21 2/17/21
f 26/21/22 7/24/22 3/2/22
f 4/3/23 3/2/23 15/22/23
f 7/24/24 15/22/24 3/2/24
f 10/9/25 5/4/25 1/1/25
f 1/1/26 4/3/26 10/9/26
f 28/23/27 25/26/27 15/22/27
f 27/25/28 28/23/28 26/21/28
f 25/26/29 28/23/29 21/16/29
f 27/25/18 16/11/18 22/14/18
f 21/16/30 28/23/30 27/25/30
usemtl Walls
f 14/5/31 12/7/31 11/6/31
f 6/8/32 13/27/32 9/20/32
f 19/28/33 18/13/33 17/12/33
f 8/18/34 19/28/34 17/12/34
f 22/14/35 31/29/35 30/30/35
f 20/10/36 29/31/36 32/32/36
f 14/5/37 13/27/37 12/7/37
f 6/8/38 12/7/38 13/27/38
f 19/28/39 20/10/39 18/13/39
f 8/18/34 15/22/34 19/28/34
f 30/30/40 15/22/40 23/15/40
f 25/26/41 21/16/41 23/15/41
f 24/19/42 22/14/42 30/30/42
f 15/22/43 25/26/43 23/15/43
f 22/14/44 16/11/44 31/29/44
f 30/30/45 23/15/45 24/19/45
f 31/29/46 16/11/46 32/32/46
f 20/10/47 19/28/47 29/31/47
f 15/22/48 30/30/48 29/31/48
f 32/32/49 16/11/49 20/10/49
f 19/28/50 15/22/50 29/31/50
usemtl Wall2
f 16/11/51 35/33/51 34/34/51
f 35/33/52 9/20/52 13/27/52
f 14/5/53 10/9/53 33/35/53
f 27/25/54 9/20/54 35/33/54
f 33/35/55 10/9/55 34/34/55
f 27/25/56 35/33/56 16/11/56
f 34/34/57 10/9/57 16/11/57
f 13/27/58 14/5/58 36/36/58
f 36/36/59 35/33/59 13/27/59
f 14/5/60 33/35/60 36/36/60
usemtl general
f 31/37/61 29/38/61 30/39/61
f 31/37/62 32/40/62 29/38/62
usemtl duke
f 36/41/63 34/42/63 35/43/63
f 36/41/64 33/44/64 34/42/64
