# Blender v2.77 (sub 0) OBJ File: 'mouse.blend'
# www.blender.org
mtllib mouse.mtl
o Mouse_Cube
v 0.234618 0.163951 -0.163951
v -0.184073 0.226864 0.211040
v 0.234618 0.163951 0.163952
v 0.309881 0.056424 0.094320
v 0.309881 0.056424 -0.102194
v 0.062939 -0.244327 0.178932
v 0.234618 -0.163951 0.163951
v -0.531841 -0.154581 0.189123
v -0.184073 -0.213553 0.211040
v 0.234618 -0.163951 -0.163951
v 0.060916 -0.244327 -0.179466
v -0.184073 0.226864 -0.229377
v -0.512100 0.208437 -0.122836
v -0.531841 -0.154581 -0.214439
v -0.512100 0.208437 -0.210950
v -0.716299 -0.061323 -0.118488
v -0.871092 0.056740 -0.059253
v -0.745521 0.123382 -0.125896
v -0.512100 0.208437 0.192612
v -0.593677 0.178711 0.162887
v -0.595745 0.177958 -0.180471
v -0.921302 0.024137 0.008313
v -0.871092 0.056740 0.040916
v -0.745521 0.123382 0.107558
v -0.716299 -0.061323 0.114966
v -0.871092 -0.043429 0.040916
v -0.921302 -0.010826 -0.026650
v -0.921302 -0.010826 0.008313
v -0.871092 -0.043429 -0.059253
v -0.921302 0.024137 -0.026650
v 0.354331 -0.019566 -0.026204
v 0.309881 -0.140091 -0.102195
v 0.309881 -0.140091 0.094320
v 0.354331 -0.064100 -0.026204
v 0.354331 -0.019566 0.018330
v 0.354331 -0.064100 0.018330
v -0.542481 0.261781 0.081961
v -0.605045 0.238984 0.122903
v -0.542481 0.261781 0.145700
v -0.595316 0.178114 0.079359
v -0.595252 0.178138 -0.099430
v -0.606631 0.238406 -0.140428
v -0.542481 0.261781 -0.096226
v -0.542481 0.261781 -0.163803
v -0.512100 0.208437 0.109503
v 0.206004 -0.217662 0.195411
v 0.206563 -0.217662 -0.183904
v -0.184073 -0.213553 -0.229377
v -0.606301 0.238526 0.058843
v -0.606252 0.238544 -0.078275
v 0.205970 -0.217662 0.117601
v 0.206922 -0.217662 -0.111507
v -0.408010 -0.200973 0.083413
v -0.403800 -0.201210 -0.113976
v -0.454058 -0.198387 -0.113676
v -0.460702 -0.198013 0.081511
v -0.460028 -0.198051 0.143880
v 0.070364 -0.234618 0.138650
v 0.068131 -0.234618 -0.144043
v -0.407301 -0.201013 0.148198
v -0.402198 -0.201300 -0.171946
v -0.453639 -0.198410 -0.171907
v 0.206004 -0.240724 0.195411
v 0.062939 -0.266118 0.178932
v 0.011010 -0.293175 0.179051
v 0.062939 -0.293175 0.178932
v 0.205970 -0.240723 0.117601
v 0.062936 -0.266117 0.105633
v 0.205970 -0.269360 0.117601
v 0.206922 -0.240724 -0.111507
v 0.206563 -0.240724 -0.183904
v 0.060916 -0.266118 -0.179466
v 0.061231 -0.266117 -0.110286
v 0.206922 -0.269360 -0.111507
v 0.060916 -0.293175 -0.179466
v 0.206563 -0.269360 -0.183904
v 0.206004 -0.269360 0.195411
v 0.009302 -0.293175 -0.110167
v 0.061231 -0.293175 -0.110286
v 0.062936 -0.293175 0.105633
v 0.011007 -0.293175 0.105752
v -0.043000 -0.291757 0.160285
v -0.043002 -0.291757 0.094668
v 0.011010 -0.266118 0.179051
v 0.011007 -0.266117 0.105752
v 0.009302 -0.266117 -0.110167
v 0.008987 -0.293175 -0.179347
v 0.008987 -0.266118 -0.179347
v -0.043000 -0.267536 0.160285
v -0.044810 -0.267536 -0.160549
v -0.044529 -0.291757 -0.098620
v -0.044529 -0.267535 -0.098620
v -0.044810 -0.291757 -0.160549
v -0.043002 -0.267535 0.094668
v 0.459005 -0.024596 0.013300
v 0.547353 -0.067143 0.015445
v 0.459005 -0.024596 -0.021174
v 0.459005 -0.059071 -0.021174
v 0.459005 -0.059071 0.013300
v 0.547353 -0.092268 0.015445
v 0.595200 -0.092750 0.033023
v 0.595200 -0.120997 0.033023
v 0.547353 -0.067143 0.040569
v 0.542438 -0.087837 0.042300
v 0.588141 -0.127956 0.074984
v 0.598733 -0.137875 0.117329
v 0.586961 -0.096075 0.067459
v 0.614032 -0.163895 0.143939
v 0.606971 -0.134550 0.085183
v 0.606971 -0.160506 0.085183
v 0.597285 -0.158645 0.113721
v 0.614032 -0.185512 0.143939
v 0.605794 -0.167220 0.171745
v 0.605794 -0.188838 0.171745
v -0.455462 -0.230859 -0.171907
v -0.409873 -0.234144 0.083413
v -0.462565 -0.231184 0.081511
v -0.510680 -0.258717 0.070682
v -0.509086 -0.230343 0.070682
v -0.405623 -0.233659 -0.113976
v -0.404021 -0.233749 -0.171946
v -0.455881 -0.230836 -0.113676
v -0.407420 -0.265649 -0.113976
v -0.405818 -0.265739 -0.171946
v -0.461891 -0.231222 0.143880
v -0.409165 -0.234184 0.148197
v -0.457259 -0.262849 -0.171907
v -0.457678 -0.262826 -0.113676
v -0.463688 -0.263212 0.143880
v -0.411670 -0.266134 0.083412
v -0.410962 -0.266174 0.148197
v -0.502786 -0.230055 -0.154092
v -0.464363 -0.263174 0.081511
v -0.510082 -0.258751 0.126001
v -0.508488 -0.230377 0.126001
v -0.503157 -0.230035 -0.102443
v -0.504380 -0.258430 -0.154092
v -0.504751 -0.258409 -0.102443
vn 0.8810 -0.4731 0.0037
vn -0.4512 -0.8924 -0.0000
vn -0.0561 -0.9984 0.0000
vn -0.1148 -0.9934 -0.0000
vn -0.5446 -0.8387 -0.0000
vn -0.4907 -0.8713 -0.0000
vn -0.5155 -0.8569 0.0050
vn 0.8870 -0.4617 -0.0044
vn 0.8825 -0.4704 -0.0004
vn -0.1524 -0.9540 -0.2580
vn -0.0823 -0.9966 0.0007
vn -0.0828 -0.9966 0.0003
vn -0.0825 -0.9966 0.0006
vn -0.1778 -0.9392 0.2936
vn 0.8888 -0.4583 -0.0000
vn -0.0832 -0.9965 -0.0000
vn 0.1215 -0.9926 -0.0010
vn 0.1242 -0.9923 0.0005
vn -0.1767 -0.8736 0.4534
vn -0.1680 -0.8765 -0.4511
vn -0.0417 -0.7331 -0.6788
vn -0.4876 -0.8731 -0.0032
vn -0.5393 -0.8419 -0.0167
vn -0.0941 -0.7883 0.6081
vn 0.1486 0.9889 0.0000
vn 0.8193 0.5734 0.0000
vn 0.0869 -0.0000 0.9962
vn -0.0629 -0.0000 0.9980
vn 0.0890 0.0000 -0.9960
vn -0.0561 0.9984 0.0000
vn -0.0568 0.0127 -0.9983
vn -0.4231 -0.1030 -0.9002
vn -0.3455 0.0098 0.9384
vn -0.3128 -0.0874 -0.9458
vn -0.5446 0.8387 0.0000
vn -0.4688 0.8833 0.0000
vn -0.4315 -0.0000 0.9021
vn -1.0000 -0.0000 0.0000
vn -0.5446 0.0000 0.8387
vn -0.5446 -0.0000 -0.8387
vn 0.8632 0.5049 0.0000
vn 0.6791 -0.0000 0.7340
vn 0.6343 0.0000 -0.7731
vn 0.3022 -0.9532 -0.0000
vn 0.8632 0.0000 -0.5049
vn 0.8632 0.0000 0.5049
vn 0.8632 -0.5049 -0.0000
vn -0.3424 0.9396 -0.0000
vn 0.8690 0.4949 0.0000
vn -0.4443 0.4378 -0.7816
vn -0.4440 0.4357 0.7830
vn -0.1983 0.5719 0.7960
vn 0.1103 -0.0099 0.9939
vn 0.1289 -0.0000 0.9917
vn -0.0557 -0.0066 0.9984
vn 0.1505 -0.0265 -0.9883
vn -0.0996 0.3918 -0.9146
vn 0.1996 0.0000 -0.9799
vn -0.0429 0.0000 -0.9991
vn -0.3574 0.0000 -0.9340
vn -0.3712 0.0042 0.9286
vn -0.3373 -0.0156 0.9413
vn -0.3513 0.0281 -0.9359
vn -0.4606 0.0021 -0.8876
vn -0.4535 -0.0360 0.8905
vn -0.1144 -0.0000 0.9934
vn 0.0023 0.0000 1.0000
vn -0.0727 0.7297 -0.6798
vn 1.0000 0.0000 -0.0004
vn 1.0000 0.0000 -0.0050
vn -0.9758 0.2185 0.0044
vn -0.9834 0.0000 -0.1813
vn -0.2282 0.0000 0.9736
vn -0.0305 0.0000 -0.9995
vn 0.1613 -0.9869 -0.0008
vn 0.1642 -0.9864 -0.0000
vn 0.1642 -0.9864 -0.0001
vn 0.0834 0.0000 -0.9965
vn 0.0084 -0.0000 1.0000
vn -0.0262 -0.9997 0.0000
vn -0.3282 0.0000 0.9446
vn 0.0000 1.0000 0.0000
vn 0.0000 -1.0000 -0.0000
vn -0.0023 0.0000 -1.0000
vn -1.0000 0.0000 0.0045
vn -0.0262 0.9997 0.0000
vn -0.0263 0.9997 0.0000
vn -0.3299 0.0000 -0.9440
vn 0.2010 0.0000 -0.9796
vn -0.0263 -0.9997 0.0001
vn -0.0263 0.9997 0.0001
vn 0.2097 0.0000 0.9778
vn -0.9849 -0.1721 0.0205
vn 0.0480 -0.0000 0.9988
vn 0.4339 0.9010 0.0000
vn 0.0480 -0.9988 -0.0000
vn 0.0480 0.9988 0.0000
vn 0.0480 0.0000 -0.9988
vn 0.3448 0.0000 -0.9387
vn 0.3829 0.0000 -0.9238
vn -0.2949 0.0000 0.9555
vn -0.3522 -0.9316 0.0893
vn -0.9686 0.0226 0.2476
vn -0.4581 0.1816 0.8702
vn -0.5465 -0.8065 -0.2257
vn 0.4719 0.8817 0.0000
vn 0.7020 0.6673 0.2489
vn -0.8064 -0.5412 -0.2384
vn 0.8093 0.5338 0.2452
vn 0.9755 -0.0000 -0.2201
vn 0.9588 0.0000 0.2841
vn 0.9929 0.0000 -0.1193
vn -0.9876 0.0426 0.1511
vn -0.6448 -0.7127 -0.2763
vn -0.0008 0.0000 -1.0000
vn 0.9984 -0.0561 -0.0110
vn 0.2265 -0.0127 -0.9739
vn 0.0060 -0.0003 1.0000
vn 0.9980 -0.0561 0.0277
vn -0.9984 0.0561 -0.0072
vn -0.0814 0.0046 0.9967
vn -0.0813 0.0046 0.9967
vn 0.0360 -0.0020 -0.9994
vn -0.9984 0.0561 0.0108
vn -0.3519 0.0198 -0.9358
vn 0.9984 -0.0561 -0.0109
vn 0.0169 0.9999 -0.0003
vn 0.0180 0.9998 0.0004
vn 0.2309 -0.0130 0.9729
vn -0.3578 0.0201 0.9336
vn -0.0935 -0.9956 -0.0003
vn -0.0959 -0.9954 0.0004
vn 0.3465 -0.2532 0.9032
vn -0.9834 -0.1813 0.0064
vn 0.4039 -0.2275 -0.8861
vn -0.1534 0.0000 -0.9882
vn -0.9799 0.0000 0.1996
vn -0.9733 0.2295 0.0000
vn -0.1231 0.7380 0.6635
vn 0.1613 -0.9869 -0.0007
vn -0.9849 -0.1721 0.0206
vn -0.2796 0.1458 0.9490
vn -0.3517 -0.9361 0.0000
vn -0.9685 0.0244 0.2480
vn -0.4565 0.1883 0.8696
vn -0.5261 -0.8493 0.0439
vn 0.4866 0.8507 0.1986
vn 0.6735 0.6836 0.2813
vn -0.8109 -0.5399 -0.2259
vn 0.8019 0.5373 0.2611
vn -0.9894 0.0000 0.1451
vn -0.7153 -0.6698 -0.1991
vn 0.0359 -0.0020 -0.9994
usemtl Bottom
s 1
f 7//1 51//1 52//1
f 8//2 16//2 14//2
f 48//3 53//3 54//3
f 16//4 26//4 29//4
f 26//5 27//5 29//5
f 14//6 55//6 8//6
f 56//7 57//7 8//7
f 47//8 10//8 52//8
f 7//9 46//9 51//9
f 58//10 6//10 9//10
f 58//11 9//12 59//13
f 48//14 11//14 59//14
f 52//15 10//15 7//15
f 9//12 48//16 59//13
f 59//17 52//17 58//17
f 51//18 58//18 52//18
f 8//2 25//2 16//2
f 9//19 8//19 60//19
f 53//3 56//3 55//3
f 9//3 60//3 53//3
f 61//20 14//20 48//20
f 53//3 55//3 54//3
f 54//3 61//3 48//3
f 48//3 9//3 53//3
f 16//4 25//4 26//4
f 26//5 28//5 27//5
f 14//21 61//21 62//21
f 62//22 55//22 14//22
f 8//23 55//23 56//23
f 57//24 60//24 8//24
usemtl Coat
f 1//25 2//25 3//25
f 1//26 4//26 5//26
f 3//27 6//27 7//27
f 2//28 8//28 9//28
f 10//29 11//29 1//29
f 12//30 13//30 2//30
f 12//31 14//31 15//31
f 16//32 17//32 18//32
f 19//33 20//33 8//33
f 16//34 18//34 21//34
f 17//35 22//35 23//35
f 18//36 23//36 24//36
f 25//37 23//37 26//37
f 22//38 27//38 28//38
f 23//39 28//39 26//39
f 29//40 30//40 17//40
f 4//41 31//41 5//41
f 7//42 4//42 3//42
f 10//43 5//43 32//43
f 10//44 33//44 7//44
f 5//45 34//45 32//45
f 33//46 35//46 4//46
f 33//47 34//47 36//47
f 37//48 38//48 39//48
f 40//48 41//48 18//48
f 42//48 43//48 44//48
f 13//49 44//49 43//49
f 21//50 44//50 15//50
f 20//51 39//51 38//51
f 45//49 39//49 19//49
f 1//25 12//25 2//25
f 1//26 3//26 4//26
f 46//52 7//52 6//52
f 3//53 2//53 6//53
f 9//54 6//54 2//54
f 2//55 19//55 8//55
f 12//56 1//56 11//56
f 10//57 47//57 11//57
f 11//58 48//58 12//58
f 19//30 2//30 45//30
f 12//30 15//30 13//30
f 45//30 2//30 13//30
f 12//59 48//59 14//59
f 16//60 29//60 17//60
f 25//61 8//61 20//61
f 20//62 24//62 25//62
f 21//63 15//63 14//63
f 14//64 16//64 21//64
f 17//35 30//35 22//35
f 18//36 17//36 23//36
f 25//65 24//65 23//65
f 22//38 30//38 27//38
f 23//39 22//39 28//39
f 29//40 27//40 30//40
f 4//41 35//41 31//41
f 7//42 33//42 4//42
f 10//43 1//43 5//43
f 10//44 32//44 33//44
f 5//45 31//45 34//45
f 33//46 36//46 35//46
f 33//47 32//47 34//47
f 37//48 49//48 38//48
f 24//48 20//48 40//48
f 40//48 45//48 13//48
f 41//48 21//48 18//48
f 40//48 13//48 41//48
f 18//48 24//48 40//48
f 42//48 50//48 43//48
f 13//49 15//49 44//49
f 21//50 42//50 44//50
f 20//51 19//51 39//51
f 45//49 37//49 39//49
usemtl Feet
f 6//66 63//66 46//66
f 64//67 65//67 66//67
f 58//68 67//68 68//68
f 63//69 69//69 67//69
f 47//70 70//70 71//70
f 59//71 72//71 73//71
f 46//69 67//69 51//69
f 58//72 64//72 6//72
f 59//73 70//73 52//73
f 11//74 71//74 72//74
f 74//75 75//75 76//75
f 66//76 69//77 77//77
f 71//70 74//70 76//70
f 73//67 78//67 79//67
f 68//78 69//78 80//78
f 64//66 77//66 63//66
f 73//79 74//79 70//79
f 72//74 76//74 75//74
f 81//80 82//80 83//80
f 84//81 82//81 65//81
f 64//82 85//82 84//82
f 72//82 86//82 73//82
f 66//83 81//83 80//83
f 72//84 87//84 88//84
f 75//83 78//83 87//83
f 68//84 81//84 85//84
f 89//38 83//38 82//38
f 90//85 91//85 92//85
f 85//86 89//87 84//87
f 88//88 93//88 90//88
f 81//89 94//89 85//89
f 78//90 93//90 87//90
f 86//91 90//91 92//91
f 86//92 91//92 78//92
f 40//93 38//93 49//93
f 36//94 95//94 35//94
f 95//95 96//95 97//95
f 36//96 98//96 99//96
f 35//97 97//97 31//97
f 31//98 98//98 34//98
f 100//99 101//99 102//99
f 98//100 96//100 100//100
f 99//101 103//101 95//101
f 99//102 100//102 104//102
f 105//103 106//103 107//103
f 104//104 107//104 103//104
f 104//105 102//105 105//105
f 103//106 101//106 96//106
f 106//107 108//107 109//107
f 105//108 110//108 111//108
f 107//109 109//109 101//109
f 102//110 109//110 110//110
f 112//111 113//111 114//111
f 110//112 108//112 112//112
f 111//113 113//113 106//113
f 111//114 112//114 114//114
f 61//115 115//115 62//115
f 60//116 116//116 53//116
f 117//117 118//117 119//117
f 55//118 120//118 54//118
f 61//119 120//119 121//119
f 55//120 115//120 122//120
f 121//119 123//119 124//119
f 60//121 125//121 126//122
f 56//123 116//123 117//123
f 56//124 125//124 57//124
f 127//3 123//3 128//3
f 129//3 130//3 131//3
f 127//125 132//125 115//125
f 116//116 131//126 130//126
f 121//115 127//115 115//115
f 122//118 123//118 120//118
f 125//121 131//122 126//122
f 116//123 133//123 117//123
f 119//124 134//124 135//124
f 136//120 137//120 138//120
f 122//127 132//127 136//127
f 117//128 135//128 125//128
f 128//129 136//129 138//129
f 125//130 134//130 129//130
f 128//131 137//131 127//131
f 133//132 134//132 118//132
f 41//133 43//133 50//133
f 41//134 42//134 21//134
f 40//135 37//135 45//135
f 6//66 64//66 63//66
f 64//67 84//67 65//67
f 58//136 51//136 67//136
f 63//69 77//69 69//69
f 47//70 52//70 70//70
f 59//137 11//137 72//137
f 46//69 63//69 67//69
f 58//138 68//138 64//138
f 59//139 73//139 70//139
f 11//74 47//74 71//74
f 74//75 79//140 75//75
f 66//76 80//76 69//77
f 71//70 70//70 74//70
f 73//67 86//67 78//67
f 68//78 67//78 69//78
f 64//66 66//66 77//66
f 73//79 79//79 74//79
f 72//74 71//74 76//74
f 81//80 65//80 82//80
f 84//81 89//81 82//81
f 64//82 68//82 85//82
f 72//82 88//82 86//82
f 66//83 65//83 81//83
f 72//84 75//84 87//84
f 75//83 79//83 78//83
f 68//84 80//84 81//84
f 89//38 94//38 83//38
f 90//85 93//85 91//85
f 85//86 94//86 89//87
f 88//88 87//88 93//88
f 81//89 83//89 94//89
f 78//90 91//90 93//90
f 86//91 88//91 90//91
f 86//92 92//92 91//92
f 40//93 20//141 38//93
f 36//94 99//94 95//94
f 95//95 103//95 96//95
f 36//96 34//96 98//96
f 35//97 95//97 97//97
f 31//98 97//98 98//98
f 100//99 96//99 101//99
f 98//100 97//100 96//100
f 99//142 104//142 103//142
f 99//143 98//143 100//143
f 105//144 111//144 106//144
f 104//145 105//145 107//145
f 104//146 100//146 102//146
f 103//147 107//147 101//147
f 106//148 113//148 108//148
f 105//149 102//149 110//149
f 107//150 106//150 109//150
f 102//110 101//110 109//110
f 112//111 108//111 113//111
f 110//112 109//112 108//112
f 111//151 114//151 113//151
f 111//152 110//152 112//152
f 61//115 121//115 115//115
f 60//116 126//126 116//116
f 117//117 133//117 118//117
f 55//118 122//118 120//118
f 61//119 54//119 120//119
f 55//120 62//120 115//120
f 121//119 120//119 123//119
f 60//121 57//121 125//121
f 56//123 53//123 116//123
f 56//124 117//124 125//124
f 127//3 124//3 123//3
f 129//3 133//3 130//3
f 127//125 137//125 132//125
f 116//116 126//126 131//126
f 121//115 124//115 127//115
f 122//118 128//118 123//118
f 125//121 129//122 131//122
f 116//123 130//153 133//123
f 119//124 118//124 134//124
f 136//120 132//120 137//120
f 122//127 115//127 132//127
f 117//128 119//128 135//128
f 128//129 122//129 136//129
f 125//130 135//130 134//130
f 128//131 138//131 137//131
f 133//132 129//132 134//132
f 41//133 13//133 43//133
f 41//134 50//134 42//134
f 40//135 49//135 37//135
