# Blender v2.77 (sub 0) OBJ File: 'mouse.blend'
# www.blender.org
mtllib mouse.mtl
o Mouse_Cube
v 0.234618 -0.163951 -0.163951
v 0.234618 -0.163951 0.163951
v -0.184073 -0.213553 0.211040
v -0.184073 -0.213553 -0.229377
v 0.234618 0.163951 -0.163951
v 0.234618 0.163951 0.163952
v -0.184073 0.226864 0.211040
v -0.184073 0.226864 -0.229377
v -0.531841 -0.154581 0.189123
v -0.531841 -0.154581 -0.214439
v -0.512100 0.208437 0.192612
v -0.512100 0.208437 -0.210950
v 0.206563 -0.217662 -0.183904
v 0.060916 -0.244327 -0.179466
v 0.068131 -0.234618 -0.144043
v 0.206922 -0.217662 -0.111507
v 0.206004 -0.217662 0.195411
v 0.062939 -0.244327 0.178932
v 0.070364 -0.234618 0.138650
v 0.205970 -0.217662 0.117601
v 0.206563 -0.240724 -0.183904
v 0.060916 -0.266118 -0.179466
v 0.061231 -0.266117 -0.110286
v 0.206922 -0.240724 -0.111507
v 0.206004 -0.240724 0.195411
v 0.062939 -0.266118 0.178932
v 0.062936 -0.266117 0.105633
v 0.205970 -0.240723 0.117601
v 0.206563 -0.269360 -0.183904
v 0.060916 -0.293175 -0.179466
v 0.061231 -0.293175 -0.110286
v 0.206922 -0.269360 -0.111507
v 0.206004 -0.269360 0.195411
v 0.062939 -0.293175 0.178932
v 0.062936 -0.293175 0.105633
v 0.205970 -0.269360 0.117601
v 0.008987 -0.266118 -0.179347
v 0.009302 -0.266117 -0.110167
v 0.011010 -0.266118 0.179051
v 0.011007 -0.266117 0.105752
v 0.008987 -0.293175 -0.179347
v 0.009302 -0.293175 -0.110167
v 0.011010 -0.293175 0.179051
v 0.011007 -0.293175 0.105752
v -0.044810 -0.267536 -0.160549
v -0.044529 -0.267535 -0.098620
v -0.043000 -0.267536 0.160285
v -0.043002 -0.267535 0.094668
v -0.044810 -0.291757 -0.160549
v -0.044529 -0.291757 -0.098620
v -0.043000 -0.291757 0.160285
v -0.043002 -0.291757 0.094668
v -0.716299 -0.061323 0.114966
v -0.716299 -0.061323 -0.118488
v -0.745521 0.123382 0.107558
v -0.745521 0.123382 -0.125896
v -0.871092 -0.043429 0.040916
v -0.871092 -0.043429 -0.059253
v -0.871092 0.056740 0.040916
v -0.871092 0.056740 -0.059253
v -0.921302 -0.010826 0.008313
v -0.921302 -0.010826 -0.026650
v -0.921302 0.024137 0.008313
v -0.921302 0.024137 -0.026650
v 0.309881 -0.140091 -0.102195
v 0.309881 -0.140091 0.094320
v 0.309881 0.056424 -0.102194
v 0.309881 0.056424 0.094320
v 0.354331 -0.064100 -0.026204
v 0.354331 -0.064100 0.018330
v 0.354331 -0.019566 -0.026204
v 0.354331 -0.019566 0.018330
v 0.459005 -0.059071 -0.021174
v 0.459005 -0.059071 0.013300
v 0.459005 -0.024596 -0.021174
v 0.459005 -0.024596 0.013300
v 0.547353 -0.092268 0.015445
v 0.542438 -0.087837 0.042300
v 0.547353 -0.067143 0.015445
v 0.547353 -0.067143 0.040569
v 0.595200 -0.120997 0.033023
v 0.588141 -0.127956 0.074984
v 0.595200 -0.092750 0.033023
v 0.586961 -0.096075 0.067459
v 0.606971 -0.160506 0.085183
v 0.597285 -0.158645 0.113721
v 0.606971 -0.134550 0.085183
v 0.598733 -0.137875 0.117329
v 0.614032 -0.185512 0.143939
v 0.605794 -0.188838 0.171745
v 0.614032 -0.163895 0.143939
v 0.605794 -0.167220 0.171745
v -0.453639 -0.198410 -0.171907
v -0.454058 -0.198387 -0.113676
v -0.403800 -0.201210 -0.113976
v -0.402198 -0.201300 -0.171946
v -0.460702 -0.198013 0.081511
v -0.408010 -0.200973 0.083413
v -0.407301 -0.201013 0.148198
v -0.460028 -0.198051 0.143880
v -0.455462 -0.230859 -0.171907
v -0.455881 -0.230836 -0.113676
v -0.405623 -0.233659 -0.113976
v -0.404021 -0.233749 -0.171946
v -0.462565 -0.231184 0.081511
v -0.409873 -0.234144 0.083413
v -0.409165 -0.234184 0.148197
v -0.461891 -0.231222 0.143880
v -0.457259 -0.262849 -0.171907
v -0.457678 -0.262826 -0.113676
v -0.407420 -0.265649 -0.113976
v -0.405818 -0.265739 -0.171946
v -0.464363 -0.263174 0.081511
v -0.411670 -0.266134 0.083412
v -0.410962 -0.266174 0.148197
v -0.463688 -0.263212 0.143880
v -0.502786 -0.230055 -0.154092
v -0.503157 -0.230035 -0.102443
v -0.509086 -0.230343 0.070682
v -0.508488 -0.230377 0.126001
v -0.504380 -0.258430 -0.154092
v -0.504751 -0.258409 -0.102443
v -0.510680 -0.258717 0.070682
v -0.510082 -0.258751 0.126001
v -0.512100 0.208437 -0.122836
v -0.595745 0.177958 -0.180471
v -0.595252 0.178138 -0.099430
v -0.512100 0.208437 0.109503
v -0.593677 0.178711 0.162887
v -0.595316 0.178114 0.079359
v -0.542481 0.261781 -0.096226
v -0.542481 0.261781 -0.163803
v -0.605045 0.238984 0.122903
v -0.542481 0.261781 0.145700
v -0.606631 0.238406 -0.140428
v -0.606252 0.238544 -0.078275
v -0.542481 0.261781 0.081961
v -0.606301 0.238526 0.058843
vn 0.1486 0.9889 0.0000
vn 0.8193 0.5734 0.0000
vn 0.0869 -0.0000 0.9962
vn -0.0629 0.0000 0.9980
vn 0.0890 0.0000 -0.9960
vn -0.0561 0.9984 0.0000
vn -0.0568 0.0127 -0.9983
vn -0.4231 -0.1030 -0.9002
vn -0.3455 0.0098 0.9384
vn -0.3128 -0.0874 -0.9458
vn -0.5446 0.8387 0.0000
vn -0.4688 0.8833 -0.0000
vn -0.4315 0.0000 0.9021
vn -1.0000 0.0000 0.0000
vn -0.5446 0.0000 0.8387
vn -0.5446 0.0000 -0.8387
vn 0.8632 0.5049 0.0000
vn 0.6791 -0.0000 0.7340
vn 0.6343 -0.0000 -0.7731
vn 0.3022 -0.9532 0.0000
vn 0.8632 -0.0000 -0.5049
vn 0.8632 0.0000 0.5049
vn 0.8632 -0.5049 0.0000
vn -0.3424 0.9396 0.0000
vn 0.8690 0.4949 0.0000
vn -0.4443 0.4378 -0.7816
vn -0.4440 0.4357 0.7830
vn -0.1983 0.5719 0.7960
vn 0.1103 -0.0099 0.9939
vn 0.1289 0.0000 0.9917
vn -0.0557 -0.0066 0.9984
vn 0.1505 -0.0265 -0.9883
vn -0.0996 0.3918 -0.9146
vn 0.1996 0.0000 -0.9799
vn -0.0429 0.0000 -0.9991
vn -0.3574 0.0000 -0.9340
vn -0.3712 0.0042 0.9286
vn -0.3373 -0.0156 0.9413
vn -0.3512 0.0281 -0.9359
vn -0.4606 0.0021 -0.8876
vn -0.4535 -0.0360 0.8905
vn 0.8810 -0.4731 0.0037
vn -0.4512 -0.8924 -0.0000
vn -0.0561 -0.9984 -0.0000
vn -0.1148 -0.9934 0.0000
vn -0.5446 -0.8387 0.0000
vn -0.4907 -0.8713 -0.0000
vn -0.5155 -0.8569 0.0051
vn 0.8870 -0.4617 -0.0044
vn 0.8825 -0.4704 -0.0004
vn -0.1524 -0.9540 -0.2580
vn -0.0823 -0.9966 0.0007
vn -0.1778 -0.9392 0.2937
vn 0.8888 -0.4583 0.0000
vn -0.0832 -0.9965 0.0000
vn 0.1215 -0.9926 -0.0010
vn 0.1242 -0.9923 0.0005
vn -0.1767 -0.8736 0.4534
vn -0.1680 -0.8765 -0.4511
vn -0.0417 -0.7331 -0.6788
vn -0.4876 -0.8731 -0.0032
vn -0.5394 -0.8419 -0.0167
vn -0.0941 -0.7883 0.6081
vn -0.1144 -0.0000 0.9934
vn 0.0023 -0.0000 1.0000
vn -0.0727 0.7297 -0.6798
vn 1.0000 0.0000 -0.0004
vn 1.0000 0.0000 -0.0049
vn -0.9758 0.2185 0.0044
vn -0.9834 0.0000 -0.1813
vn -0.2282 -0.0000 0.9736
vn -0.0305 0.0000 -0.9995
vn 0.1613 -0.9869 -0.0008
vn 0.1642 -0.9864 -0.0001
vn 0.0834 0.0000 -0.9965
vn 0.0084 -0.0000 1.0000
vn -0.0262 -0.9997 -0.0000
vn -0.3282 -0.0000 0.9446
vn -0.0000 1.0000 0.0000
vn 0.0000 -1.0000 -0.0000
vn -0.0023 0.0000 -1.0000
vn -1.0000 -0.0000 0.0045
vn -0.0262 0.9997 0.0000
vn -0.3299 0.0000 -0.9440
vn 0.2010 0.0000 -0.9796
vn -0.0263 -0.9997 0.0001
vn -0.0263 0.9997 0.0001
vn 0.2097 -0.0000 0.9778
vn -0.9849 -0.1721 0.0205
vn 0.0480 -0.0000 0.9988
vn 0.4339 0.9010 0.0000
vn 0.0480 -0.9988 0.0000
vn 0.0480 0.9988 0.0000
vn 0.0480 0.0000 -0.9988
vn 0.3448 0.0000 -0.9387
vn 0.3829 0.0000 -0.9238
vn -0.2949 0.0000 0.9555
vn -0.3522 -0.9316 0.0892
vn -0.9686 0.0226 0.2476
vn -0.4581 0.1816 0.8702
vn -0.5465 -0.8065 -0.2257
vn 0.4719 0.8817 0.0000
vn 0.7019 0.6673 0.2489
vn -0.8064 -0.5412 -0.2384
vn 0.8093 0.5338 0.2452
vn 0.9755 0.0000 -0.2201
vn 0.9588 0.0000 0.2841
vn 0.9929 0.0000 -0.1193
vn -0.9876 0.0426 0.1511
vn -0.6448 -0.7127 -0.2763
vn -0.0008 0.0000 -1.0000
vn 0.9984 -0.0561 -0.0110
vn 0.2265 -0.0127 -0.9739
vn 0.0059 -0.0003 1.0000
vn 0.9980 -0.0561 0.0277
vn -0.9984 0.0561 -0.0072
vn -0.0814 0.0046 0.9967
vn 0.0359 -0.0020 -0.9994
vn -0.9984 0.0561 0.0108
vn -0.3520 0.0198 -0.9358
vn 0.0169 0.9999 -0.0003
vn 0.0180 0.9998 0.0004
vn 0.2309 -0.0130 0.9729
vn -0.3578 0.0201 0.9336
vn -0.0935 -0.9956 -0.0003
vn -0.0959 -0.9954 0.0004
vn 0.3465 -0.2532 0.9032
vn -0.9834 -0.1813 0.0064
vn 0.4039 -0.2275 -0.8861
vn -0.1534 0.0000 -0.9882
vn -0.9799 -0.0000 0.1996
vn -0.9733 0.2295 0.0000
vn -0.1231 0.7380 0.6635
vn 0.1613 -0.9869 -0.0007
vn 0.1642 -0.9864 -0.0000
vn -0.2796 0.1458 0.9490
vn -0.3517 -0.9361 0.0000
vn -0.9685 0.0244 0.2480
vn -0.4565 0.1884 0.8696
vn -0.5261 -0.8493 0.0438
vn 0.4866 0.8507 0.1986
vn 0.6734 0.6837 0.2813
vn -0.8109 -0.5399 -0.2259
vn 0.8019 0.5374 0.2611
vn -0.9894 0.0000 0.1451
vn -0.7153 -0.6698 -0.1991
usemtl Coat
s off
f 5//1 7//1 6//1
f 5//2 68//2 67//2
f 6//3 18//3 2//3
f 7//4 9//4 3//4
f 1//5 14//5 5//5
f 8//6 125//6 7//6
f 8//7 10//7 12//7
f 54//8 60//8 56//8
f 11//9 129//9 9//9
f 54//10 56//10 126//10
f 60//11 63//11 59//11
f 56//12 59//12 55//12
f 53//13 59//13 57//13
f 63//14 62//14 61//14
f 59//15 61//15 57//15
f 58//16 64//16 60//16
f 68//17 71//17 67//17
f 2//18 68//18 6//18
f 1//19 67//19 65//19
f 1//20 66//20 2//20
f 67//21 69//21 65//21
f 66//22 72//22 68//22
f 66//23 69//23 70//23
f 137//24 133//24 134//24
f 130//24 127//24 56//24
f 135//24 131//24 132//24
f 125//25 132//25 131//25
f 126//26 132//26 12//26
f 129//27 134//27 133//27
f 128//25 134//25 11//25
f 5//1 8//1 7//1
f 5//2 6//2 68//2
f 17//28 2//28 18//28
f 6//29 7//29 18//29
f 3//30 18//30 7//30
f 7//31 11//31 9//31
f 8//32 5//32 14//32
f 1//33 13//33 14//33
f 14//34 4//34 8//34
f 11//6 7//6 128//6
f 8//6 12//6 125//6
f 128//6 7//6 125//6
f 8//35 4//35 10//35
f 54//36 58//36 60//36
f 53//37 9//37 129//37
f 129//38 55//38 53//38
f 126//39 12//39 10//39
f 10//40 54//40 126//40
f 60//11 64//11 63//11
f 56//12 60//12 59//12
f 53//41 55//41 59//41
f 63//14 64//14 62//14
f 59//15 63//15 61//15
f 58//16 62//16 64//16
f 68//17 72//17 71//17
f 2//18 66//18 68//18
f 1//19 5//19 67//19
f 1//20 65//20 66//20
f 67//21 71//21 69//21
f 66//22 70//22 72//22
f 66//23 65//23 69//23
f 137//24 138//24 133//24
f 55//24 129//24 130//24
f 130//24 128//24 125//24
f 127//24 126//24 56//24
f 130//24 125//24 127//24
f 56//24 55//24 130//24
f 135//24 136//24 131//24
f 125//25 12//25 132//25
f 126//26 135//26 132//26
f 129//27 11//27 134//27
f 128//25 137//25 134//25
usemtl Bottom
f 2//42 20//42 16//42
f 9//43 54//43 10//43
f 4//44 98//44 95//44
f 54//45 57//45 58//45
f 57//46 62//46 58//46
f 10//47 94//47 9//47
f 97//48 100//48 9//48
f 13//49 1//49 16//49
f 2//50 17//50 20//50
f 19//51 18//51 3//51
f 19//52 3//52 15//52
f 4//53 14//53 15//53
f 16//54 1//54 2//54
f 3//55 4//55 15//55
f 15//56 16//56 19//56
f 20//57 19//57 16//57
f 9//43 53//43 54//43
f 3//58 9//58 99//58
f 98//44 97//44 94//44
f 3//44 99//44 98//44
f 96//59 10//59 4//59
f 98//44 94//44 95//44
f 95//44 96//44 4//44
f 4//44 3//44 98//44
f 54//45 53//45 57//45
f 57//46 61//46 62//46
f 10//60 96//60 93//60
f 93//61 94//61 10//61
f 9//62 94//62 97//62
f 100//63 99//63 9//63
usemtl Feet
f 18//64 25//64 17//64
f 26//65 43//65 34//65
f 19//66 28//66 27//66
f 25//67 36//67 28//67
f 13//68 24//68 21//68
f 15//69 22//69 23//69
f 17//67 28//67 20//67
f 19//70 26//70 18//70
f 15//71 24//71 16//71
f 14//72 21//72 22//72
f 32//73 30//73 29//73
f 34//74 36//74 33//74
f 21//68 32//68 29//68
f 23//65 42//65 31//65
f 27//75 36//75 35//75
f 26//64 33//64 25//64
f 23//76 32//76 24//76
f 22//72 29//72 30//72
f 44//77 51//77 52//77
f 39//78 51//78 43//78
f 26//79 40//79 39//79
f 22//79 38//79 23//79
f 34//80 44//80 35//80
f 22//81 41//81 37//81
f 30//80 42//80 41//80
f 27//81 44//81 40//81
f 47//14 52//14 51//14
f 45//82 50//82 46//82
f 40//83 47//83 39//83
f 37//84 49//84 45//84
f 44//85 48//85 40//85
f 42//86 49//86 41//86
f 38//87 45//87 46//87
f 38//88 50//88 42//88
f 130//89 133//89 138//89
f 70//90 76//90 72//90
f 76//91 79//91 75//91
f 70//92 73//92 74//92
f 72//93 75//93 71//93
f 71//94 73//94 69//94
f 77//95 83//95 81//95
f 73//96 79//96 77//96
f 74//97 80//97 76//97
f 74//98 77//98 78//98
f 82//99 88//99 84//99
f 78//100 84//100 80//100
f 78//101 81//101 82//101
f 80//102 83//102 79//102
f 88//103 91//103 87//103
f 82//104 85//104 86//104
f 84//105 87//105 83//105
f 81//106 87//106 85//106
f 89//107 92//107 90//107
f 85//108 91//108 89//108
f 86//109 92//109 88//109
f 86//110 89//110 90//110
f 96//111 101//111 93//111
f 99//112 106//112 98//112
f 105//113 123//113 119//113
f 94//114 103//114 95//114
f 96//115 103//115 104//115
f 94//116 101//116 102//116
f 104//115 111//115 112//115
f 99//117 108//117 107//117
f 97//118 106//118 105//118
f 97//119 108//119 100//119
f 109//44 111//44 110//44
f 116//44 114//44 115//44
f 109//120 117//120 101//120
f 106//112 115//112 114//112
f 104//111 109//111 101//111
f 102//114 111//114 103//114
f 108//117 115//117 107//117
f 106//118 113//118 105//118
f 119//119 124//119 120//119
f 118//116 121//116 122//116
f 102//121 117//121 118//121
f 105//122 120//122 108//122
f 110//123 118//123 122//123
f 108//124 124//124 116//124
f 110//125 121//125 109//125
f 113//126 124//126 123//126
f 127//127 131//127 136//127
f 127//128 135//128 126//128
f 130//129 137//129 128//129
f 18//64 26//64 25//64
f 26//65 39//65 43//65
f 19//130 20//130 28//130
f 25//67 33//67 36//67
f 13//68 16//68 24//68
f 15//131 14//131 22//131
f 17//67 25//67 28//67
f 19//132 27//132 26//132
f 15//133 23//133 24//133
f 14//72 13//72 21//72
f 32//134 31//134 30//134
f 34//135 35//135 36//135
f 21//68 24//68 32//68
f 23//65 38//65 42//65
f 27//75 28//75 36//75
f 26//64 34//64 33//64
f 23//76 31//76 32//76
f 22//72 21//72 29//72
f 44//77 43//77 51//77
f 39//78 47//78 51//78
f 26//79 27//79 40//79
f 22//79 37//79 38//79
f 34//80 43//80 44//80
f 22//81 30//81 41//81
f 30//80 31//80 42//80
f 27//81 35//81 44//81
f 47//14 48//14 52//14
f 45//82 49//82 50//82
f 40//83 48//83 47//83
f 37//84 41//84 49//84
f 44//85 52//85 48//85
f 42//86 50//86 49//86
f 38//87 37//87 45//87
f 38//88 46//88 50//88
f 130//89 129//89 133//89
f 70//90 74//90 76//90
f 76//91 80//91 79//91
f 70//92 69//92 73//92
f 72//93 76//93 75//93
f 71//94 75//94 73//94
f 77//95 79//95 83//95
f 73//96 75//96 79//96
f 74//136 78//136 80//136
f 74//137 73//137 77//137
f 82//138 86//138 88//138
f 78//139 82//139 84//139
f 78//140 77//140 81//140
f 80//141 84//141 83//141
f 88//142 92//142 91//142
f 82//143 81//143 85//143
f 84//144 88//144 87//144
f 81//106 83//106 87//106
f 89//107 91//107 92//107
f 85//108 87//108 91//108
f 86//145 90//145 92//145
f 86//146 85//146 89//146
f 96//111 104//111 101//111
f 99//112 107//112 106//112
f 105//113 113//113 123//113
f 94//114 102//114 103//114
f 96//115 95//115 103//115
f 94//116 93//116 101//116
f 104//115 103//115 111//115
f 99//117 100//117 108//117
f 97//118 98//118 106//118
f 97//119 105//119 108//119
f 109//44 112//44 111//44
f 116//44 113//44 114//44
f 109//120 121//120 117//120
f 106//112 107//112 115//112
f 104//111 112//111 109//111
f 102//114 110//114 111//114
f 108//117 116//117 115//117
f 106//118 114//118 113//118
f 119//119 123//119 124//119
f 118//116 117//116 121//116
f 102//121 101//121 117//121
f 105//122 119//122 120//122
f 110//123 102//123 118//123
f 108//124 120//124 124//124
f 110//125 122//125 121//125
f 113//126 116//126 124//126
f 127//127 125//127 131//127
f 127//128 136//128 135//128
f 130//129 138//129 137//129
