# Blender v2.77 (sub 0) OBJ File: 'prince.blend'
# www.blender.org
mtllib prince.mtl
o Cube.001
v -0.735318 -1.000000 -1.000000
v -0.735318 -1.000000 1.000000
v -1.000000 -1.000000 1.000000
v -1.000000 -1.000000 -1.000000
v -0.735317 1.756632 -0.999999
v -0.735319 1.756632 1.000001
v -1.000000 1.756632 1.000000
v -1.000000 1.756632 -1.000000
vt 0.0000 0.0000
vt 0.0000 0.0000
vt 0.0000 0.0000
vt 0.0000 0.0000
vt 0.0000 0.0000
vt 0.0000 0.0000
vt 0.0000 0.0000
vt 0.0000 0.0000
vt 1.0000 1.0000
vt 0.0001 0.0001
vt 1.0000 0.0001
vt 1.0000 0.0001
vt 1.0000 1.0000
vt 1.0000 0.0001
vt 0.0001 1.0000
vt 0.9999 1.0000
vn 0.0000 -1.0000 0.0000
vn 0.0000 1.0000 -0.0000
vn 0.0000 -0.0000 1.0000
vn 0.0000 0.0000 -1.0000
vn 1.0000 -0.0000 0.0000
vn -1.0000 -0.0000 -0.0000
usemtl Material.001
s off
f 1/1/1 3/2/1 4/3/1
f 5/4/2 7/5/2 6/6/2
f 6/6/3 3/2/3 2/7/3
f 1/1/4 8/8/4 5/4/4
f 1/1/1 2/7/1 3/2/1
f 5/4/2 8/8/2 7/5/2
f 6/6/3 7/5/3 3/2/3
f 1/1/4 4/3/4 8/8/4
usemtl Duke
f 5/9/5 2/10/5 1/11/5
f 7/12/6 4/13/6 3/14/6
f 5/9/5 6/15/5 2/10/5
f 7/12/6 8/16/6 4/13/6
