# Blender v2.77 (sub 0) OBJ File: 'table.blend'
# www.blender.org
mtllib table.mtl
o Cube
v 1.000000 0.763679 -4.005899
v 1.000000 0.763679 3.764929
v -1.000000 0.763679 3.764929
v -1.000000 0.763679 -4.005899
v 1.000000 1.058750 -4.005898
v 0.999999 1.058750 3.764929
v -1.000000 1.058750 3.764928
v -1.000000 1.058750 -4.005899
v -0.688898 0.763679 3.764929
v -1.000000 0.763679 3.421574
v -0.683830 0.763679 3.428375
v 0.661524 0.763679 3.764929
v 1.000000 0.763679 3.417956
v 0.662368 0.763679 3.430753
v -1.000000 0.763679 -3.579400
v -0.651111 0.763679 -4.005899
v -0.646415 0.763680 -3.569771
v 0.596009 0.763679 -4.005899
v 1.000000 0.763679 -3.597135
v 0.592873 0.763679 -3.587315
v 1.000000 0.019587 3.764929
v 0.661524 0.019587 3.764929
v 1.000000 0.019587 3.417956
v 0.662368 0.019587 3.430753
v -1.000000 0.034986 3.764928
v -0.688897 0.034986 3.764928
v -1.000000 0.034986 3.421574
v -0.683830 0.034986 3.428375
v -0.999998 0.004901 -4.005898
v -0.999998 0.004901 -3.579399
v -0.651110 0.004901 -4.005898
v -0.646413 0.004902 -3.569770
v 1.000000 0.006641 -4.005898
v 0.596008 0.006641 -4.005898
v 1.000000 0.006641 -3.597135
v 0.592873 0.006642 -3.587315
v -0.837999 1.386569 -3.136806
v -0.837999 2.131627 -3.136806
v -0.837999 1.386569 -3.701643
v -0.837999 2.131627 -3.701643
v -0.273162 1.386569 -3.136806
v -0.273162 2.131627 -3.136806
v -0.273162 1.386569 -3.701643
v -0.273162 2.131627 -3.701643
v -0.712790 1.386569 -3.511451
v -0.412999 1.386568 -3.476659
v -0.436081 1.386569 -3.339102
v -0.694251 1.394034 -3.364888
v -0.753175 1.160686 -3.557624
v -0.377212 1.158139 -3.512182
v -0.395941 1.158156 -3.319502
v -0.751948 1.164362 -3.348607
v -0.753175 1.031728 -3.557624
v -0.377212 1.046043 -3.512183
v -0.395941 1.046060 -3.319502
v -0.751948 1.030584 -3.348607
vn 0.0000 -0.0000 -1.0000
vn 0.0000 1.0000 -0.0000
vn 1.0000 0.0000 0.0000
vn 0.0000 0.0000 1.0000
vn -1.0000 -0.0000 0.0000
vn -0.0272 0.0000 0.9996
vn 0.0000 -1.0000 -0.0000
vn -1.0000 0.0000 -0.0025
vn -0.0379 0.0000 -0.9993
vn 0.9999 0.0000 0.0151
vn 0.0215 0.0000 -0.9998
vn 0.9999 0.0000 -0.0108
vn 0.0241 0.0000 0.9997
vn -1.0000 0.0000 -0.0075
vn 0.0387 -0.9992 -0.0057
vn 0.0431 -0.9991 0.0043
vn 0.1098 -0.9933 0.0367
vn -0.0241 -0.9986 -0.0479
vn -1.0000 0.0000 0.0059
vn -0.0972 0.0681 0.9929
vn 0.1193 0.1783 -0.9767
vn -0.9622 0.2495 0.1090
vn 0.9856 0.1395 0.0958
vn 0.9953 0.0000 0.0967
vn -0.0815 0.0000 0.9967
vn 0.1200 0.0000 -0.9928
vn -0.0796 0.0904 0.9927
vn 0.1136 0.1700 -0.9789
vn -0.9845 0.1755 0.0027
vn 0.9693 0.1843 0.1627
usemtl Material
s off
f 18//1 33//1 34//1
f 8//2 6//2 5//2
f 6//3 2//3 13//3
f 7//4 3//4 9//4
f 8//5 4//5 15//5
f 16//1 4//1 8//1
f 10//5 25//5 3//5
f 13//3 21//3 23//3
f 15//6 32//6 17//6
f 14//7 11//7 17//7
f 24//7 21//7 22//7
f 12//8 24//8 22//8
f 12//4 21//4 2//4
f 13//9 24//9 14//9
f 28//7 25//7 27//7
f 9//4 25//4 26//4
f 9//10 28//10 11//10
f 10//11 28//11 27//11
f 31//7 30//7 29//7
f 15//5 29//5 30//5
f 16//1 29//1 4//1
f 16//12 32//12 31//12
f 35//7 34//7 33//7
f 19//13 36//13 35//13
f 19//3 33//3 1//3
f 18//14 36//14 20//14
f 54//15 56//15 53//15
f 18//1 1//1 33//1
f 8//2 7//2 6//2
f 19//3 1//3 5//3
f 5//3 6//3 19//3
f 13//3 19//3 6//3
f 12//4 2//4 6//4
f 6//4 7//4 12//4
f 9//4 12//4 7//4
f 10//5 3//5 7//5
f 7//5 8//5 15//5
f 15//5 10//5 7//5
f 8//1 5//1 18//1
f 18//1 16//1 8//1
f 5//1 1//1 18//1
f 10//5 27//5 25//5
f 13//3 2//3 21//3
f 15//6 30//6 32//6
f 16//7 18//7 20//7
f 20//7 19//7 13//7
f 14//7 12//7 11//7
f 20//7 13//7 14//7
f 17//7 16//7 20//7
f 10//7 15//7 17//7
f 12//7 9//7 11//7
f 11//7 10//7 17//7
f 17//7 20//7 14//7
f 24//7 23//7 21//7
f 12//8 14//8 24//8
f 12//4 22//4 21//4
f 13//9 23//9 24//9
f 28//7 26//7 25//7
f 9//4 3//4 25//4
f 9//10 26//10 28//10
f 10//11 11//11 28//11
f 31//7 32//7 30//7
f 15//5 4//5 29//5
f 16//1 31//1 29//1
f 16//12 17//12 32//12
f 35//7 36//7 34//7
f 19//13 20//13 36//13
f 19//3 35//3 33//3
f 18//14 34//14 36//14
f 54//16 55//16 56//16
usemtl shade
f 40//5 37//5 38//5
f 44//1 39//1 40//1
f 42//3 43//3 44//3
f 38//4 41//4 42//4
f 40//5 39//5 37//5
f 44//1 43//1 39//1
f 42//3 41//3 43//3
f 38//4 37//4 41//4
usemtl Light
f 37//7 47//7 41//7
f 44//2 38//2 42//2
f 43//7 45//7 39//7
f 37//7 39//7 45//7
f 37//17 45//17 48//17
f 46//7 43//7 41//7
f 37//18 48//18 47//18
f 47//7 46//7 41//7
f 44//2 40//2 38//2
f 43//7 46//7 45//7
usemtl base
f 49//19 56//19 52//19
f 48//20 51//20 47//20
f 45//21 50//21 49//21
f 45//22 52//22 48//22
f 46//23 51//23 50//23
f 50//24 55//24 54//24
f 52//25 55//25 51//25
f 49//26 54//26 53//26
f 49//19 53//19 56//19
f 48//27 52//27 51//27
f 45//28 46//28 50//28
f 45//29 49//29 52//29
f 46//30 47//30 51//30
f 50//24 51//24 55//24
f 52//25 56//25 55//25
f 49//26 50//26 54//26
