# Blender v2.79 (sub 0) OBJ File: 'Texture.blend'
# www.blender.org
mtllib TextureTri.mtl
o Cube
v -1.035550 -1.057564 0.995380
v -1.035550 0.942435 0.995380
v -1.035550 -1.057564 -1.004620
v -1.035550 0.942435 -1.004620
v 0.964450 -1.057564 0.995380
v 0.964450 0.942435 0.995380
v 0.964450 -1.057564 -1.004620
v 0.964450 0.942435 -1.004620
vt 0.386098 0.998272
vt 0.636236 0.748497
vt 0.636055 0.998454
vt 0.136141 0.998091
vt 0.386279 0.748316
vt 0.636599 0.248584
vt 0.386461 0.498359
vt 0.386642 0.248403
vt 0.886193 0.748678
vt 0.886011 0.998635
vt 0.636417 0.498540
vt 0.636780 -0.001373
vt 0.136323 0.748134
vt 0.386823 -0.001554
vn -1.0000 0.0000 0.0000
vn 0.0000 0.0000 -1.0000
vn 1.0000 0.0000 0.0000
vn 0.0000 0.0000 1.0000
vn 0.0000 -1.0000 0.0000
vn 0.0000 1.0000 0.0000
usemtl CubeMaterial
s off
f 4/1/1 1/2/1 2/3/1
f 8/4/2 3/5/2 4/1/2
f 6/6/3 7/7/3 8/8/3
f 2/3/4 5/9/4 6/10/4
f 3/5/5 5/11/5 1/2/5
f 8/8/6 2/12/6 6/6/6
f 4/1/1 3/5/1 1/2/1
f 8/4/2 7/13/2 3/5/2
f 6/6/3 5/11/3 7/7/3
f 2/3/4 1/2/4 5/9/4
f 3/5/5 7/7/5 5/11/5
f 8/8/6 4/14/6 2/12/6
